<?xml version="1.0" standalone="no"?><!DOCTYPE svg PUBLIC "-//W3C//DTD SVG 1.1//EN" "http://www.w3.org/Graphics/SVG/1.1/DTD/svg11.dtd" ><svg xmlns="http://www.w3.org/2000/svg"><metadata></metadata><defs><font id="typonine.com: ModeratoB-Lt 2014" horiz-adv-x="897"><font-face font-family="ThemaModeratoB Lt" font-weight="300" font-stretch="normal" units-per-em="1000" panose-1="2 0 0 0 0 0 0 0 0 0" ascent="899" descent="-301" x-height="0" bbox="-195 -262 1006 743" underline-thickness="50" underline-position="-125" unicode-range="U+0021-00fc" /><missing-glyph horiz-adv-x="663" d="M663 0 L0 0 L0 650 L663 650 L663 0 ZM643 20 L643 630 L20 630 L20 20 L643 20 ZM474 218 L452 196 L332 316 L213 197 L190 220 L309 338 L193 454 L215 476 L331 360 L450 479 L472 457 L354 338 L474 218 Z" /><glyph glyph-name="exclam" unicode="!" d="M179 518 Q180 499 172 449 Q161 382 125.5 276.5 Q90 171 89 166 L79 166 Q81 176 81 226 Q81 233 82 270 Q83 307 84 329 Q87 396 97 449 Q112 531 132 549 Q142 558 153 558 Q179 558 179 518 ZM117 53 Q117 24 100 9 Q83 -6 58 -6 Q17 -6 17 33 Q17 58 33 77 Q49 96 76 96 Q117 96 117 53 Z" /><glyph glyph-name="quotesingle" unicode="&#39;" d="M152 520 Q152 465 133 390.5 Q114 316 113 299 L105 299 Q104 317 85.5 391.5 Q67 466 67 520 Q67 559 109 559 Q152 559 152 520 Z" /><glyph glyph-name="parenleft" unicode="(" d="M342 637 Q220 545 157.5 413.5 Q95 282 95 145 Q95 -30 204 -146 L192 -156 Q113 -102 72 -20 Q31 62 31 159 Q31 299 110.5 433 Q190 567 334 649 L342 637 Z" /><glyph glyph-name="parenright" unicode=")" d="M254 333 Q254 193 175 59 Q96 -75 -47 -156 L-55 -144 Q65 -51 128 80.5 Q191 212 191 347 Q191 523 82 639 L94 649 Q173 596 213.5 513 Q254 430 254 333 Z" /><glyph glyph-name="asterisk" unicode="*" d="M340 364 L313 322 L213 397 L225 279 L179 279 L192 399 L94 322 L66 365 L184 416 L66 467 L94 510 L192 435 L179 552 L225 552 L213 435 L313 510 L340 468 L218 416 L340 364 Z" /><glyph glyph-name="comma" unicode="," d="M129 25 Q129 -45 78.5 -87 Q28 -129 -21 -139 L-24 -132 Q49 -113 62 -45 Q65 -32 65 -15 Q27 -15 27 21 Q27 47 44 64.5 Q61 82 85 82 Q107 82 118 65 Q129 48 129 25 Z" /><glyph glyph-name="period" unicode="." d="M128 56 Q128 23 111 8.5 Q94 -6 69 -6 Q28 -6 28 32 Q28 58 44 77 Q60 96 87 96 Q105 96 116.5 85.5 Q128 75 128 56 Z" /><glyph glyph-name="zero" unicode="0" d="M362 204 Q362 301 327 356.5 Q292 412 241 412 Q192 412 160 360 Q128 308 128 215 Q128 119 161.5 63.5 Q195 8 247 8 Q297 8 329.5 59 Q362 110 362 204 ZM442 218 Q442 120 386 56 Q330 -8 240 -8 Q155 -8 99.5 48.5 Q44 105 44 200 Q44 297 101 362.5 Q158 428 249 428 Q332 428 387 371.5 Q442 315 442 218 Z" /><glyph glyph-name="one" unicode="1" d="M333 0 Q210 2 181 2 L31 0 L31 9 Q99 13 121 26.5 Q143 40 143 91 L143 335 Q143 367 119 378 Q95 389 32 392 L32 399 L224 429 Q221 387 221 327 L220 91 Q220 41 243 27 Q266 13 333 9 L333 0 Z" /><glyph glyph-name="two" unicode="2" d="M344 0 L24 0 L24 39 Q235 187 235 303 Q235 338 210.5 355.5 Q186 373 149 373 Q95 373 58 346 L53 350 Q55 353 58 358.5 Q61 364 73.5 377.5 Q86 391 100.5 401 Q115 411 139 419.5 Q163 428 190 428 Q247 428 281 395 Q315 362 315 313 Q315 241 240 172.5 Q165 104 75 69 Q320 69 344 77 L344 0 Z" /><glyph glyph-name="three" unicode="3" d="M341 13 Q341 -56 291 -103.5 Q241 -151 160 -151 Q61 -151 17 -83 L23 -76 Q61 -98 127 -98 Q184 -98 222.5 -71 Q261 -44 261 11 Q261 61 220.5 94.5 Q180 128 107 142 L109 158 L123 163 Q173 184 203 219 Q233 254 233 293 Q233 327 208.5 348 Q184 369 141 369 Q114 369 89.5 360 Q65 351 54 343.5 Q43 336 39 331 L33 335 Q85 428 179 428 Q236 428 274.5 396.5 Q313 365 313 311 Q313 212 182 183 Q254 168 297.5 122 Q341 76 341 13 Z" /><glyph glyph-name="four" unicode="4" d="M414 30 L316 30 L316 -140 L238 -140 L238 30 L14 30 L4 75 L250 424 L316 424 L316 98 Q376 98 414 104 L414 30 ZM241 380 L43 99 L238 99 L239 341 Q239 352 241 380 Z" /><glyph glyph-name="five" unicode="5" d="M352 15 Q352 -65 298.5 -109 Q245 -153 170 -153 Q128 -153 92 -137 Q56 -121 42 -107.5 Q28 -94 21 -83 L27 -76 Q65 -98 131 -98 Q187 -98 229.5 -71.5 Q272 -45 272 10 Q272 125 52 154 L66 418 L341 418 L336 348 L77 348 L70 222 Q152 213 212.5 191.5 Q273 170 312.5 125 Q352 80 352 15 Z" /><glyph glyph-name="six" unicode="6" d="M371.5 292 Q409 246 409 173 Q409 100 365 46 Q321 -8 237 -8 Q174 -8 130.5 30.5 Q87 69 68.5 126 Q50 183 50 253 Q50 313 70 368 Q90 423 128.5 469 Q167 515 231.5 542.5 Q296 570 377 570 L377 560 Q273 560 203.5 473.5 Q134 387 134 264 Q134 224 138.5 185.5 Q143 147 154.5 104 Q166 61 190.5 34.5 Q215 8 250 8 Q292 8 310.5 53.5 Q329 99 329 157 Q329 220 302.5 256.5 Q276 293 226 293 Q200 293 176 285 L174 290 Q214 338 272 338 Q334 338 371.5 292 Z" /><glyph glyph-name="seven" unicode="7" d="M365 409 L125 -145 L105 -145 L319 348 L16 348 L28 418 L365 418 L365 409 Z" /><glyph glyph-name="eight" unicode="8" d="M416 141 Q416 79 359 35.5 Q302 -8 226 -8 Q157 -8 104.5 28 Q52 64 52 122 Q52 195 153 250 L158 245 Q129 205 129 139 Q129 83 157 45.5 Q185 8 234 8 Q282 8 308.5 42 Q335 76 335 114 Q335 143 312.5 173.5 Q290 204 266.5 221.5 Q243 239 199 269 Q166 291 149 304 Q132 317 110 338 Q88 359 78 381.5 Q68 404 68 430 Q68 488 117.5 529 Q167 570 241 570 Q308 570 351 536 Q394 502 394 451 Q394 411 369.5 389 Q345 367 292 343 L287 348 Q321 392 321 442 Q321 498 294.5 526.5 Q268 555 227 555 Q184 555 162.5 527 Q141 499 141 462 Q141 452 142.5 443.5 Q144 435 148.5 426.5 Q153 418 156 412 Q159 406 168.5 396.5 Q178 387 183.5 382 Q189 377 203.5 366 Q218 355 225.5 349.5 Q233 344 252.5 330 Q272 316 282 309 Q316 285 334 270.5 Q352 256 374 234 Q396 212 406 189 Q416 166 416 141 Z" /><glyph glyph-name="nine" unicode="9" d="M387 180 Q387 41 299 -55 Q211 -151 50 -151 L50 -141 Q157 -141 232 -53.5 Q307 34 307 169 Q307 201 302.5 236.5 Q298 272 287.5 314.5 Q277 357 253 384.5 Q229 412 195 412 Q163 412 143.5 386.5 Q124 361 118 331 Q112 301 112 266 Q112 129 211 129 Q236 129 266 138 L269 133 Q233 82 171 82 Q112 82 71.5 127 Q31 172 31 244 Q31 318 75.5 373 Q120 428 201 428 Q250 428 287 406.5 Q324 385 345 348.5 Q366 312 376.5 269.5 Q387 227 387 180 Z" /><glyph glyph-name="colon" unicode=":" d="M137 53 Q137 22 120 7.5 Q103 -7 78 -7 Q60 -7 48.5 4 Q37 15 37 35 Q37 61 52.5 77.5 Q68 94 96 94 Q114 94 125.5 83 Q137 72 137 53 ZM185 323 Q185 293 168 279 Q151 265 126 265 Q108 265 96.5 276 Q85 287 85 307 Q85 332 101 348.5 Q117 365 144 365 Q162 365 173.5 354 Q185 343 185 323 Z" /><glyph glyph-name="semicolon" unicode=";" d="M188 323 Q188 292 171 278 Q154 264 129 264 Q111 264 99.5 275 Q88 286 88 306 Q88 331 104 348 Q120 365 147 365 Q165 365 176.5 354 Q188 343 188 323 ZM138 25 Q138 -45 87.5 -87 Q37 -129 -12 -139 L-15 -132 Q52 -115 70 -55 Q75 -35 75 -15 Q36 -15 36 21 Q36 47 53.5 64.5 Q71 82 94 82 Q116 82 127 65 Q138 48 138 25 Z" /><glyph glyph-name="question" unicode="?" d="M312 465 Q312 436 299 409 Q286 382 266 362.5 Q246 343 223.5 323 Q201 303 181 287 Q161 271 148 252 Q135 233 135 215 Q135 190 160 190 Q165 190 177 192 Q159 155 125 155 Q99 155 84 168 Q69 181 69 204 Q69 214 71 222 Q78 253 106.5 285 Q135 317 165 339.5 Q195 362 219.5 393 Q244 424 244 454 Q244 508 170 508 Q109 508 55 473 L49 481 Q120 558 208 558 Q261 558 286.5 532 Q312 506 312 465 ZM156 53 Q156 24 139 9 Q122 -6 97 -6 Q56 -6 56 33 Q56 58 72 77 Q88 96 115 96 Q156 96 156 53 Z" /><glyph glyph-name="A" unicode="a" d="M601 0 Q520 2 491 2 L376 0 L376 9 Q394 9 403 9.5 Q412 10 424 11.5 Q436 13 441 17.5 Q446 22 446 29 Q446 33 436 61 Q426 89 409.5 133 Q393 177 384 202 Q382 202 341.5 203 Q301 204 282 204 Q265 204 239.5 203.5 Q214 203 194.5 202.5 Q175 202 173 202 Q120 71 118 62 Q112 36 134 23 Q156 10 194 9 L194 0 Q106 2 77 2 L-4 0 L-4 9 Q38 13 64.5 40 Q91 67 115 123 L299 555 L338 555 L523 82 Q540 37 554.5 24.5 Q569 12 601 9 L601 0 ZM376 222 L283 468 Q208 293 181 221 Q182 221 199 220.5 Q216 220 240 220 Q264 220 282 220 Q368 220 376 222 Z" /><glyph glyph-name="B" unicode="b" d="M550 154 Q550 82 488.5 41 Q427 0 322 0 Q309 0 254.5 1 Q200 2 185 2 L54 0 L54 9 Q109 13 125 28.5 Q141 44 141 89 L141 461 Q141 507 125 522.5 Q109 538 54 541 L54 551 Q162 549 179 549 Q180 549 228 550 Q276 551 294 551 Q503 551 503 430 Q503 399 489.5 374.5 Q476 350 453.5 335.5 Q431 321 411.5 313 Q392 305 372 300 Q404 295 429 287.5 Q454 280 484.5 264.5 Q515 249 532.5 220.5 Q550 192 550 154 ZM456 138 Q456 200 413.5 239 Q371 278 290 278 L261 278 Q231 278 225 276 L225 116 Q225 63 244.5 40 Q264 17 316 17 Q377 17 416.5 47 Q456 77 456 138 ZM411 417 Q411 534 283 534 Q270 534 256.5 533 Q243 532 235 530 L227 529 Q226 524 226 473 L225 295 Q231 293 262 293 L289 293 Q342 293 376.5 324 Q411 355 411 417 Z" /><glyph glyph-name="C" unicode="c" d="M577 159 Q568 99 561 14 Q544 14 478.5 3 Q413 -8 382 -8 Q239 -8 153 66 Q67 140 67 266 Q67 394 156.5 476 Q246 558 392 558 Q422 558 483 548 Q544 538 561 538 L570 538 Q569 522 569 472 Q569 411 570 395 L560 395 Q550 428 538.5 450.5 Q527 473 508 494.5 Q489 516 459.5 527 Q430 538 389 538 Q287 538 224.5 474 Q162 410 162 282 Q162 146 227 79.5 Q292 13 379 13 Q424 13 456 23.5 Q488 34 509 58 Q530 82 540.5 101.5 Q551 121 567 159 L577 159 Z" /><glyph glyph-name="D" unicode="d" d="M666 274 Q666 -2 325 -2 Q301 -2 246 0 Q191 2 184 2 L53 0 L53 9 Q108 13 124 28.5 Q140 44 140 89 L140 461 Q140 507 124 522.5 Q108 538 53 541 L53 551 Q150 549 181 549 Q199 549 258.5 550 Q318 551 319 551 Q666 551 666 274 ZM572 264 Q572 336 551.5 390 Q531 444 494.5 474.5 Q458 505 412.5 519.5 Q367 534 313 534 Q252 534 224 527 L224 103 Q224 51 249.5 33.5 Q275 16 327 16 Q572 16 572 264 Z" /><glyph glyph-name="E" unicode="e" d="M528 145 Q518 76 513 -6 Q466 -1 411 -1 Q234 2 190 2 L52 0 L52 9 Q107 13 123 28.5 Q139 44 139 89 L139 461 Q139 507 123 522.5 Q107 538 52 541 L52 551 Q154 549 184 549 Q189 549 294 550 Q399 551 405 551 Q449 551 497 556 Q495 518 495 490 Q495 450 497 406 L489 406 Q479 443 470 461.5 Q461 480 438.5 498.5 Q416 517 375.5 524.5 Q335 532 270 532 L223 532 L223 292 L274 292 Q400 292 407 382 L417 382 Q414 310 414 287 L417 186 L407 186 Q404 236 377.5 254.5 Q351 273 283 273 L223 273 L223 144 Q223 66 246.5 42.5 Q270 19 346 19 Q422 19 458 43.5 Q494 68 519 145 L528 145 Z" /><glyph glyph-name="F" unicode="f" d="M498 406 L488 406 Q479 435 472 450.5 Q465 466 450 483.5 Q435 501 413.5 509.5 Q392 518 356 523.5 Q320 529 269 529 L224 529 L224 285 L260 285 Q342 285 373.5 308.5 Q405 332 408 376 L418 376 Q415 304 415 281 L418 169 L408 169 Q405 222 376.5 244 Q348 266 270 266 L224 266 L224 89 Q224 45 246.5 29 Q269 13 337 9 L337 0 Q213 2 182 2 L53 0 L53 9 Q108 13 124 28.5 Q140 44 140 89 L140 461 Q140 507 124 522.5 Q108 538 53 541 L53 551 Q150 549 182 549 Q286 551 406 551 Q450 551 498 556 Q496 518 496 492 Q496 450 498 406 Z" /><glyph glyph-name="G" unicode="g" d="M644 233 Q599 230 589.5 216 Q580 202 580 154 L580 13 Q563 11 523 5 Q483 -1 450.5 -4.5 Q418 -8 387 -8 Q243 -8 155 67.5 Q67 143 67 270 Q67 399 156.5 478.5 Q246 558 390 558 Q433 558 495 548 Q557 538 577 538 L586 538 Q585 522 585 472 Q585 411 586 395 L577 395 Q564 430 551.5 452 Q539 474 518.5 495.5 Q498 517 466.5 527.5 Q435 538 392 538 Q289 538 225.5 476 Q162 414 162 283 Q162 147 229.5 80 Q297 13 400 13 Q466 13 496 31 L496 154 Q496 201 480 215.5 Q464 230 394 233 L394 242 Q507 241 538 241 L644 242 L644 233 Z" /><glyph glyph-name="H" unicode="h" d="M684 0 Q586 2 555 2 L426 0 L426 9 Q481 13 497 28.5 Q513 44 513 89 L513 278 Q401 279 365 279 Q339 279 282 278 L225 278 L225 89 Q225 44 241.5 28.5 Q258 13 312 9 L312 0 Q214 2 183 2 L54 0 L54 9 Q109 13 125 28.5 Q141 44 141 89 L141 461 Q141 507 125 522.5 Q109 538 54 541 L54 551 Q151 549 183 549 L312 551 L312 541 Q258 538 241.5 522.5 Q225 507 225 461 L225 296 Q226 296 282.5 295 Q339 294 365 294 L513 296 L513 461 Q513 507 497 522.5 Q481 538 426 541 L426 551 Q523 549 555 549 L684 551 L684 541 Q631 538 614 522 Q597 506 597 461 L597 89 Q597 44 614 28.5 Q631 13 684 9 L684 0 Z" /><glyph glyph-name="I" unicode="i" d="M312 0 Q214 2 183 2 L54 0 L54 9 Q109 13 125 28.5 Q141 44 141 89 L141 461 Q141 507 125 522.5 Q109 538 54 541 L54 551 Q151 549 183 549 L312 551 L312 541 Q258 538 241.5 522.5 Q225 507 225 461 L225 89 Q225 44 241.5 28.5 Q258 13 312 9 L312 0 Z" /><glyph glyph-name="J" unicode="j" d="M292 541 Q247 539 234 523 Q221 507 221 461 L224 5 Q225 -129 55 -202 L48 -191 Q93 -164 114.5 -121 Q136 -78 136 5 L136 461 Q136 507 120 522.5 Q104 538 50 541 L50 551 Q147 549 179 549 L292 551 L292 541 Z" /><glyph glyph-name="K" unicode="k" d="M304 541 Q252 538 238.5 523 Q225 508 225 461 L225 89 Q225 41 236 27 Q247 13 296 9 L296 0 Q214 2 183 2 L54 0 L54 9 Q109 13 125 28.5 Q141 44 141 89 L141 461 Q141 507 125 522.5 Q109 538 54 541 L54 551 Q151 549 183 549 L304 551 L304 541 ZM643 0 Q591 2 538 2 Q446 2 394 0 L394 9 Q430 9 442 19.5 Q454 30 439 48 L251 272 L412 470 Q433 496 433 514 Q433 539 376 541 L376 551 Q488 549 513 549 L605 551 L605 541 Q548 539 510.5 526 Q473 513 445 479 L317 321 Q339 295 372 255.5 Q405 216 422 195 Q439 174 463.5 145.5 Q488 117 501 101.5 Q514 86 529.5 69.5 Q545 53 554.5 43.5 Q564 34 571 29 Q583 21 601 16 Q619 11 631 10 L643 9 L643 0 Z" /><glyph glyph-name="L" unicode="l" d="M529 148 Q520 83 514 -6 Q467 -1 422 -1 L318 1 L182 2 L53 0 L53 9 Q108 13 124 28.5 Q140 44 140 89 L140 461 Q140 507 124 522.5 Q108 538 53 541 L53 551 Q150 549 182 549 L311 551 L311 541 Q256 538 240 522.5 Q224 507 224 461 L224 136 Q224 59 249 39 Q274 19 359 19 Q477 19 520 148 L529 148 Z" /><glyph glyph-name="M" unicode="m" d="M810 0 Q714 2 682 2 L570 0 L570 9 Q617 13 628.5 27.5 Q640 42 640 89 L640 414 Q640 486 639 491 L424 -8 L397 -8 L166 461 L166 142 Q166 65 191.5 38.5 Q217 12 278 9 L278 0 Q182 2 150 2 L57 0 L57 9 Q109 13 126.5 44.5 Q144 76 144 142 L144 385 Q144 458 134 491 Q124 524 107.5 531.5 Q91 539 52 541 L52 551 L216 551 L442 91 L643 551 L799 551 L799 541 Q748 538 736 524 Q724 510 724 463 L724 89 Q724 44 740.5 28.5 Q757 13 810 9 L810 0 Z" /><glyph glyph-name="N" unicode="n" d="M695 541 Q643 538 626 509.5 Q609 481 609 410 L609 -11 L577 -11 L168 436 L168 142 Q168 68 188 40.5 Q208 13 269 9 L269 0 Q190 2 159 2 L59 0 L59 9 Q113 13 129 40 Q145 67 145 142 L145 382 Q145 439 140.5 470.5 Q136 502 122.5 517.5 Q109 533 95.5 536.5 Q82 540 51 541 L51 551 L177 551 L586 106 L586 410 Q586 483 566.5 511 Q547 539 483 541 L483 551 Q566 549 598 549 L695 551 L695 541 Z" /><glyph glyph-name="O" unicode="o" d="M570 271 Q570 397 512 467.5 Q454 538 363 538 Q276 538 219 472.5 Q162 407 162 283 Q162 158 220 85.5 Q278 13 371 13 Q459 13 514.5 80 Q570 147 570 271 ZM667 287 Q667 158 580.5 75 Q494 -8 363 -8 Q309 -8 258 8 Q207 24 163.5 55 Q120 86 93.5 140 Q67 194 67 263 Q67 393 153 475.5 Q239 558 372 558 Q430 558 482 541 Q534 524 575.5 491.5 Q617 459 642 406 Q667 353 667 287 Z" /><glyph glyph-name="P" unicode="p" d="M518 393 Q518 323 470 279.5 Q422 236 351 236 Q318 236 293 246 L293 256 Q308 253 319 253 Q424 253 424 380 Q424 453 388.5 493.5 Q353 534 286 534 Q239 534 226 532 Q225 503 225 446 L225 89 Q225 45 247.5 29 Q270 13 338 9 L338 0 Q214 2 183 2 L54 0 L54 9 Q109 13 125 28.5 Q141 44 141 89 L141 461 Q141 507 125 522.5 Q109 538 54 541 L54 551 Q145 549 169 549 Q181 549 209 550 Q237 551 248 551 L310 551 Q402 551 460 510 Q518 469 518 393 Z" /><glyph glyph-name="Q" unicode="q" d="M1006 -146 Q948 -242 849 -242 Q804 -242 751.5 -225 Q699 -208 642 -174.5 Q585 -141 548 -117 Q511 -93 455.5 -52 Q400 -11 393 -6 Q373 -8 360 -8 Q306 -8 256 7.5 Q206 23 162.5 54.5 Q119 86 93 139.5 Q67 193 67 262 Q67 392 153 475 Q239 558 371 558 Q493 558 579.5 487 Q666 416 666 288 Q666 173 595.5 92.5 Q525 12 416 -4 Q685 -165 876 -165 Q943 -165 1002 -142 L1006 -146 ZM570 270 Q570 396 512 467 Q454 538 363 538 Q276 538 218.5 472 Q161 406 161 282 Q161 158 219 85.5 Q277 13 370 13 Q458 13 514 79.5 Q570 146 570 270 Z" /><glyph glyph-name="R" unicode="r" d="M618 -2 Q578 -17 536 -17 Q502 -17 473.5 0 Q445 17 412 64 L284 263 Q348 263 383.5 300.5 Q419 338 419 402 Q419 463 385.5 498.5 Q352 534 285 534 Q274 534 226 532 Q224 456 224 420 L224 89 Q224 40 237.5 26.5 Q251 13 304 9 L304 0 Q213 2 182 2 L53 0 L53 9 Q108 13 124 28.5 Q140 44 140 89 L140 461 Q140 507 124 522.5 Q108 538 53 541 L53 551 Q148 549 165 549 Q171 549 222 550 Q273 551 290 551 Q413 551 463.5 510 Q514 469 514 406 Q514 372 501 345.5 Q488 319 468.5 305 Q449 291 430 283 Q411 275 396 271 L381 267 Q410 221 422.5 201 Q435 181 461.5 142 Q488 103 504 85 Q520 67 541.5 45 Q563 23 582 15.5 Q601 8 618 10 L618 -2 Z" /><glyph glyph-name="S" unicode="s" d="M446 151 Q446 78 385 35 Q324 -8 232 -8 Q202 -8 157.5 0 Q113 8 81 8 Q77 114 70 154 L80 154 Q101 89 138.5 49.5 Q176 10 245 10 Q304 10 331 39.5 Q358 69 358 113 Q358 151 333 177 Q308 203 235 246 Q190 272 169.5 285.5 Q149 299 124.5 320 Q100 341 91.5 362 Q83 383 83 411 Q83 478 135.5 518 Q188 558 270 558 Q299 558 342 550.5 Q385 543 405 542 L414 542 Q414 531 413.5 509 Q413 487 413 476 Q413 465 413.5 436 Q414 407 414 396 L405 396 Q390 461 359 501 Q328 541 268 541 Q218 541 194.5 512.5 Q171 484 171 443 Q171 411 193 386 Q215 361 284 320 Q336 289 358 274.5 Q380 260 405 238.5 Q430 217 438 197.5 Q446 178 446 151 Z" /><glyph glyph-name="T" unicode="t" d="M552 397 L543 397 Q532 435 522.5 456 Q513 477 495.5 497.5 Q478 518 450.5 526 Q423 534 382 534 L348 534 Q346 438 346 374 L346 89 Q346 46 368 29.5 Q390 13 447 9 L447 0 Q335 2 304 2 L160 0 L160 9 Q217 13 239 29.5 Q261 46 261 89 L261 374 Q261 458 258 534 L230 534 Q185 534 156 526.5 Q127 519 109 498 Q91 477 82.5 457 Q74 437 63 397 L54 397 Q55 420 55 492 Q55 536 54 555 Q110 551 146 551 Q175 551 222.5 550.5 Q270 550 291 550 L329 550 Q347 550 390.5 550.5 Q434 551 460 551 Q494 551 552 555 Q551 536 551 492 Q551 420 552 397 Z" /><glyph glyph-name="U" unicode="u" d="M667 541 Q612 538 592.5 510 Q573 482 573 408 L573 193 Q573 136 554.5 95 Q536 54 504.5 32.5 Q473 11 438 1.5 Q403 -8 362 -8 Q133 -8 133 163 L133 461 Q133 507 117 522.5 Q101 538 46 541 L46 551 Q143 549 175 549 L304 551 L304 541 Q250 538 233.5 522.5 Q217 507 217 461 L217 194 Q217 94 258.5 53.5 Q300 13 381 13 Q549 13 549 202 L549 408 Q549 482 523.5 510 Q498 538 430 541 L430 551 Q516 549 548 549 L667 551 L667 541 Z" /><glyph glyph-name="V" unicode="v" d="M618 541 Q574 537 551.5 514 Q529 491 501 420 L332 -8 L285 -8 L95 469 Q77 515 65 527 Q53 539 22 541 L22 551 Q96 549 125 549 L245 551 L245 541 Q227 541 218 540.5 Q209 540 197 538.5 Q185 537 180 533 Q175 529 175 522 Q175 502 344 79 L437 315 Q496 461 496 498 Q496 519 473.5 530 Q451 541 415 541 L415 551 Q504 549 534 549 L618 551 L618 541 Z" /><glyph glyph-name="W" unicode="w" d="M896 541 Q852 537 829.5 515 Q807 493 783 428 L622 -8 L578 -8 L442 346 L313 -8 L272 -8 L98 469 Q81 514 67.5 526.5 Q54 539 22 541 L22 551 Q96 549 125 549 L245 551 L245 541 Q227 541 218 540.5 Q209 540 197 538.5 Q185 537 180 533 Q175 529 175 522 Q175 501 329 87 L433 372 L397 469 Q379 514 365 526.5 Q351 539 318 541 L318 551 Q398 549 428 549 L547 551 L547 541 Q529 541 520 540.5 Q511 540 499.5 538.5 Q488 537 483 533 Q478 529 478 522 Q478 502 634 85 Q637 94 679.5 208.5 Q722 323 724 328 Q771 463 771 494 Q771 541 687 541 L687 551 Q783 549 812 549 L896 551 L896 541 Z" /><glyph glyph-name="X" unicode="x" d="M614 0 Q534 2 504 2 L386 0 L386 9 Q433 10 433 30 Q433 32 431.5 36 Q430 40 425.5 47 Q421 54 416.5 61 Q412 68 403.5 80 Q395 92 387.5 103 Q380 114 367 131.5 Q354 149 343.5 163.5 Q333 178 316 201.5 Q299 225 285 244 L181 95 Q158 62 158 41 Q158 10 217 9 L217 0 Q150 2 118 2 L12 0 L12 9 Q70 19 108.5 50.5 Q147 82 181 131 L273 261 Q142 442 127 464 Q98 505 78 522 Q58 539 28 541 L28 551 Q104 549 135 549 L251 551 L251 541 Q203 541 203 520 Q203 500 329 326 L416 449 Q436 481 436 504 Q436 541 373 541 L373 551 Q453 549 484 549 L583 551 L583 541 Q501 537 447 460 L341 310 Q369 271 509 82 Q563 11 614 9 L614 0 Z" /><glyph glyph-name="Y" unicode="y" d="M565 541 Q537 535 514.5 515.5 Q492 496 465 452 L339 252 L339 88 Q339 43 355.5 27.5 Q372 12 425 9 L425 -1 Q328 1 296 1 L167 -1 L167 9 Q222 12 238 27.5 Q254 43 254 88 L254 229 L105 460 Q73 510 56 525.5 Q39 541 12 541 L12 551 Q78 549 108 549 L229 551 L229 541 Q170 541 170 517 Q170 496 328 272 L428 431 Q455 475 455 503 Q455 541 377 541 L377 551 Q457 549 487 549 L565 551 L565 541 Z" /><glyph glyph-name="Z" unicode="z" d="M526 140 Q518 95 510 -5 Q462 0 418 0 L51 0 L51 20 L404 534 L348 534 Q202 534 150 507.5 Q98 481 90 409 L80 409 Q82 433 82 481 Q82 531 80 555 Q146 551 169 551 L505 551 L505 534 L146 17 L184 17 Q314 18 384.5 31.5 Q455 45 482.5 69.5 Q510 94 516 140 L526 140 Z" /><glyph glyph-name="a" unicode="a" d="M442 88 Q370 -9 308 -9 Q260 -9 260 40 Q260 54 263 70 L274 130 Q246 75 199 33 Q152 -9 115 -9 Q70 -9 48.5 29 Q27 67 27 114 Q27 189 57 259 Q87 329 152 378.5 Q217 428 303 428 Q374 428 401 423 L350 150 Q339 95 339 72 Q339 39 366 39 Q378 39 398.5 53 Q419 67 437 92 L442 88 ZM322 388 Q303 407 273 407 Q200 407 154.5 331 Q109 255 109 144 Q109 46 169 46 Q202 46 231 78 Q260 110 280 160 L311 327 L322 388 Z" /><glyph glyph-name="b" unicode="b" d="M470 689 Q470 650 424 635 Q408 672 379.5 697.5 Q351 723 314 723 Q292 723 274 711 Q256 699 244.5 682 Q233 665 223 633.5 Q213 602 207.5 577.5 Q202 553 194 512 L150 285 Q177 339 229.5 383.5 Q282 428 321 428 Q366 428 387 390 Q408 352 408 305 Q408 230 375.5 159.5 Q343 89 275.5 40 Q208 -9 122 -9 Q78 -9 21 0 Q37 52 52 128 L122 522 Q143 637 206.5 690 Q270 743 360 743 Q416 743 443 728 Q470 713 470 689 ZM326 286 Q326 377 267 377 Q233 377 198.5 338.5 Q164 300 142 244 L100 29 Q123 12 152 12 Q213 12 254 56 Q295 100 310.5 159 Q326 218 326 286 Z" /><glyph glyph-name="c" unicode="c" d="M346 374 Q346 343 312 323 Q263 401 224 401 Q192 401 165 363.5 Q138 326 123.5 272.5 Q109 219 109 166 Q109 44 193 44 Q242 44 297 96 L301 91 Q264 45 220.5 18 Q177 -9 137 -9 Q89 -9 59.5 27 Q30 63 30 136 Q30 245 101.5 336.5 Q173 428 267 428 Q300 428 322 412.5 Q344 397 346 374 Z" /><glyph glyph-name="d" unicode="d" d="M702 689 Q702 650 656 635 Q640 672 611.5 697.5 Q583 723 546 723 Q518 723 497.5 707 Q477 691 463 658 Q449 625 441 593 Q433 561 424 512 L359 150 Q348 95 348 72 Q348 39 375 39 Q387 39 407.5 53 Q428 67 446 92 L451 88 Q379 -9 317 -9 Q269 -9 269 40 Q269 54 272 70 L283 131 Q255 77 203.5 34 Q152 -9 113 -9 Q69 -9 47.5 29 Q26 67 26 114 Q26 169 45.5 224 Q65 279 100.5 325 Q136 371 191.5 399.5 Q247 428 312 428 Q328 428 337 427 L354 522 Q375 637 438.5 690 Q502 743 592 743 Q648 743 675 728 Q702 713 702 689 ZM331 391 Q310 407 282 407 Q221 407 180 363 Q139 319 123.5 260 Q108 201 108 133 Q108 42 168 42 Q200 42 234 79.5 Q268 117 291 171 L320 327 L331 391 Z" /><glyph glyph-name="e" unicode="e" d="M353 351 Q353 294 286 255 Q219 216 112 212 Q109 186 109 162 Q109 44 191 44 Q243 44 302 96 L306 91 Q265 45 227 18 Q189 -9 147 -9 Q86 -9 57 28.5 Q28 66 28 127 Q28 193 56.5 261.5 Q85 330 140 379 Q195 428 260 428 Q310 428 331.5 406 Q353 384 353 351 ZM275 370 Q275 408 242 408 Q195 408 160 352 Q125 296 113 220 Q198 231 236.5 277 Q275 323 275 370 Z" /><glyph glyph-name="f" unicode="f" d="M451 606 Q451 588 437 572.5 Q423 557 391 557 Q391 558 388 569.5 Q385 581 384 583.5 Q383 586 379.5 596.5 Q376 607 373.5 611 Q371 615 366.5 623 Q362 631 357.5 634 Q353 637 347 642 Q341 647 333.5 648.5 Q326 650 318 650 Q303 650 290 643 Q277 636 267 620 Q257 604 250 590 Q243 576 236 548.5 Q229 521 225.5 506 Q222 491 215 459 L205 410 L335 410 L328 371 L197 371 L108 -104 Q96 -169 56.5 -212 Q17 -255 -48 -255 Q-93 -255 -130 -236.5 Q-167 -218 -167 -184 Q-167 -162 -150 -145.5 Q-133 -129 -103 -129 Q-106 -153 -103 -176 Q-100 -199 -86 -218.5 Q-72 -238 -47 -238 Q13 -238 34 -120 L124 371 L45 371 L47 380 L133 412 L137 433 Q162 566 213.5 619.5 Q265 673 339 673 Q389 673 420 653 Q451 633 451 606 Z" /><glyph glyph-name="g" unicode="g" d="M410 423 L343 65 Q330 -4 312 -56.5 Q294 -109 264 -156.5 Q234 -204 187 -229.5 Q140 -255 78 -255 Q0 -255 -42 -230 Q-84 -205 -84 -161 Q-84 -114 -43.5 -71.5 Q-3 -29 79 -1 Q26 26 26 120 Q26 172 45.5 225.5 Q65 279 100.5 324.5 Q136 370 191.5 399 Q247 428 312 428 Q383 428 410 423 ZM331 388 Q310 407 275 407 Q220 407 180.5 364 Q141 321 124.5 263 Q108 205 108 144 Q108 46 164 46 Q202 46 235 81 Q268 116 290 170 L320 327 L331 388 ZM283 130 Q254 76 202.5 33.5 Q151 -9 110 -9 Q101 -9 89 -5 Q44 -24 19 -61 Q-6 -98 -6 -138 Q-6 -179 22 -206.5 Q50 -234 104 -234 Q178 -234 209 -169 Q240 -104 272 70 L283 130 Z" /><glyph glyph-name="h" unicode="h" d="M470 689 Q470 650 424 635 Q408 672 379.5 697.5 Q351 723 314 723 Q286 723 266 707 Q246 691 232 657.5 Q218 624 210.5 593.5 Q203 563 193 512 L129 179 Q160 252 192 301 Q272 428 342 428 Q378 428 394.5 404 Q411 380 403 338 L368 150 Q356 96 356 71 Q356 39 382 39 Q394 39 414.5 53 Q435 67 454 92 L460 88 Q386 -9 325 -9 Q277 -9 277 40 Q277 54 280 70 L328 327 Q335 367 296 367 Q249 367 197 287 Q152 218 119 128 L94 0 L22 0 Q37 52 52 128 L121 522 Q141 637 205.5 690 Q270 743 360 743 Q416 743 443 728 Q470 713 470 689 Z" /><glyph glyph-name="i" unicode="i" d="M240 637 Q240 611 224 593 Q208 575 184 575 Q167 575 157.5 588 Q148 601 148 620 Q149 645 163.5 661 Q178 677 201 677 Q219 677 229.5 666 Q240 655 240 637 ZM246 88 Q173 -9 111 -9 Q63 -9 63 40 Q63 54 66 70 L104 270 Q117 344 117 356 Q117 381 99 381 Q66 381 23 328 L17 332 Q84 428 147 428 Q169 428 180.5 413.5 Q192 399 192 381.5 Q192 364 191 350 L154 150 Q143 95 143 72 Q143 39 169 39 Q181 39 201.5 53 Q222 67 240 92 L246 88 Z" /><glyph glyph-name="j" unicode="j" d="M241 637 Q241 611 225 593 Q209 575 185 575 Q168 575 158.5 588 Q149 601 149 620 Q150 645 164.5 661 Q179 677 202 677 Q220 677 230.5 666 Q241 655 241 637 ZM192 350 L158 163 L123 -25 Q105 -121 58.5 -168.5 Q12 -216 -74 -255 L-78 -244 Q19 -182 51 -26 L105 270 Q117 352 117 358 Q117 381 100 381 Q67 381 24 328 L18 332 Q85 428 148 428 Q170 428 181.5 413.5 Q193 399 193 381.5 Q193 364 192 350 Z" /><glyph glyph-name="k" unicode="k" d="M469 689 Q469 650 423 635 Q407 672 378.5 697.5 Q350 723 313 723 Q294 723 279 716 Q264 709 252.5 692.5 Q241 676 232.5 660 Q224 644 216.5 615.5 Q209 587 205 566.5 Q201 546 194 512 L129 181 Q177 291 231.5 359.5 Q286 428 342 428 Q406 428 406 357 Q406 303 358.5 258.5 Q311 214 236 197 Q317 76 321 71 Q348 36 373 36 Q384 36 398 49.5 Q412 63 420 83 L427 80 Q407 31 377.5 11 Q348 -9 320 -9 Q290 -9 257 37 Q248 49 235.5 69.5 Q223 90 201 125.5 Q179 161 162 188 L235 201 Q279 225 301.5 264.5 Q324 304 324 339 Q324 377 303 377 Q269 377 231 332.5 Q193 288 167 237 Q141 186 119 128 L94 0 L22 0 Q37 52 52 128 L121 522 Q141 636 205.5 689.5 Q270 743 359 743 Q415 743 442 728 Q469 713 469 689 Z" /><glyph glyph-name="l" unicode="l" d="M466 689 Q466 650 420 635 Q404 672 375.5 697.5 Q347 723 310 723 Q265 723 239.5 667 Q214 611 196 512 L130 150 Q118 96 118 72 Q118 39 145 39 Q175 39 216 92 L222 88 Q148 -9 87 -9 Q39 -9 39 39 Q39 46 43 70 L90 327 L126 522 Q167 743 356 743 Q412 743 439 728 Q466 713 466 689 Z" /><glyph glyph-name="m" unicode="m" d="M711 88 Q638 -9 577 -9 Q528 -9 528 39 Q528 46 532 70 L580 327 Q587 367 549 367 Q472 367 384 144 L356 0 L281 0 Q302 72 311 128 L347 327 Q355 367 316 367 Q286 367 252.5 328.5 Q219 290 195.5 244 Q172 198 151 143 L122 0 L50 0 Q65 52 80 128 L106 269 Q119 343 119 355 Q119 380 101 380 Q68 380 25 327 L19 331 Q87 428 149 428 Q172 428 184 413.5 Q196 399 195.5 381 Q195 363 194 349 L162 196 Q206 297 257.5 362.5 Q309 428 361 428 Q397 428 414 404 Q431 380 423 338 L394 194 Q438 296 489.5 362 Q541 428 594 428 Q630 428 647 404 Q664 380 656 338 L619 150 Q608 95 608 72 Q608 39 634 39 Q647 39 667 53 Q687 67 705 92 L711 88 Z" /><glyph glyph-name="n" unicode="n" d="M488 88 Q414 -9 353 -9 Q305 -9 305 40 Q305 54 308 70 L356 327 Q363 367 324 367 Q278 367 232 297.5 Q186 228 150 137 L122 0 L50 0 Q65 52 80 128 L106 269 Q119 343 119 355 Q119 380 101 380 Q68 380 25 327 L19 331 Q87 428 149 428 Q172 428 184 413.5 Q196 399 195.5 381 Q195 363 194 349 L161 188 Q207 291 261.5 359.5 Q316 428 370 428 Q406 428 422.5 404 Q439 380 431 338 L396 150 Q384 96 384 71 Q384 39 410 39 Q422 39 442.5 53 Q463 67 482 92 L488 88 Z" /><glyph glyph-name="o" unicode="o" d="M405 269 Q405 164 338 77.5 Q271 -9 170 -9 Q103 -9 67.5 36.5 Q32 82 32 149 Q32 251 99 339.5 Q166 428 264 428 Q334 428 369.5 381 Q405 334 405 269 ZM322 275 Q322 330 306.5 369.5 Q291 409 254 409 Q208 409 174.5 364.5 Q141 320 127.5 261 Q114 202 114 140 Q114 8 176 8 Q240 8 281 89.5 Q322 171 322 275 Z" /><glyph glyph-name="p" unicode="p" d="M443 299 Q443 229 410.5 160 Q378 91 311 41 Q244 -9 159 -9 Q141 -9 131 -8 L127 -33 Q106 -153 59.5 -204 Q13 -255 -66 -255 Q-119 -255 -157 -236 Q-195 -217 -195 -183 Q-195 -160 -177.5 -144.5 Q-160 -129 -129 -129 Q-131 -155 -129 -167 Q-122 -238 -61 -238 Q-38 -238 -20.5 -227 Q-3 -216 7.5 -200.5 Q18 -185 28 -153 Q38 -121 43 -96 Q48 -71 57 -23 L109 269 Q121 327 121 346 Q121 380 97 380 Q65 380 23 327 L17 331 Q91 428 154 428 Q199 428 199 380 Q199 367 196 349 L184 284 Q211 339 263.5 383.5 Q316 428 359 428 Q397 428 420 392.5 Q443 357 443 299 ZM361 275 Q361 377 305 377 Q269 377 234 339 Q199 301 177 245 L149 92 L137 27 Q160 12 192 12 Q248 12 288 56 Q328 100 344.5 157.5 Q361 215 361 275 Z" /><glyph glyph-name="q" unicode="q" d="M410 423 L324 -50 Q301 -178 301 -212 Q301 -233 305 -252 L214 -262 L232 -162 L285 135 Q258 80 205 35.5 Q152 -9 113 -9 Q69 -9 47.5 29 Q26 67 26 114 Q26 169 45.5 224 Q65 279 100.5 325 Q136 371 191.5 399.5 Q247 428 312 428 Q383 428 410 423 ZM331 388 Q312 407 282 407 Q221 407 180 363 Q139 319 123.5 260 Q108 201 108 133 Q108 46 168 46 Q203 46 236.5 83 Q270 120 292 174 L331 388 Z" /><glyph glyph-name="r" unicode="r" d="M364 382 Q357 346 325 327 Q313 356 274 356 Q218 356 168 224 L122 0 L50 0 Q65 52 80 128 L106 269 Q119 343 119 355 Q119 380 101 380 Q68 380 25 327 L19 331 Q87 428 149 428 Q172 428 184 413.5 Q196 399 195.5 381 Q195 363 194 349 L176 263 Q240 428 319 428 Q346 428 357 415 Q368 402 364 382 Z" /><glyph glyph-name="s" unicode="s" d="M337 361 Q337 325 290 316 Q277 313 261 313 Q268 330 268 353 Q268 411 208 411 Q177 411 155 392 Q133 373 133 337 Q133 311 161.5 284 Q190 257 223.5 236.5 Q257 216 285.5 182.5 Q314 149 314 112 Q314 55 267 23 Q220 -9 150 -9 Q87 -9 49.5 10 Q12 29 12 65 Q12 86 30 101.5 Q48 117 78 117 Q77 110 77 80 Q80 8 147 8 Q186 8 211 30 Q236 52 236 96 Q236 117 218 138 Q200 159 174.5 177 Q149 195 123.5 214.5 Q98 234 80 259 Q62 284 62 311 Q62 364 108.5 396 Q155 428 220 428 Q269 428 303 410 Q337 392 337 361 Z" /><glyph glyph-name="t" unicode="t" d="M331 410 L323 371 L190 371 L136 88 Q127 41 169 41 Q220 41 273 88 L278 82 Q190 -9 112 -9 Q46 -9 61 70 L116 371 L45 371 L47 380 L125 409 L154 514 L217 514 L198 410 L331 410 Z" /><glyph glyph-name="u" unicode="u" d="M478 88 Q408 -9 348 -9 Q325 -9 313 5.5 Q301 20 301.5 38 Q302 56 303 70 L335 225 Q291 123 236 57 Q181 -9 127 -9 Q91 -9 74 15 Q57 39 65 81 L105 269 Q117 323 117 347 Q117 380 91 380 Q78 380 57.5 366 Q37 352 19 327 L13 331 Q87 428 148 428 Q196 428 196 379 Q196 366 193 349 L141 92 Q134 52 172 52 Q204 52 240.5 93.5 Q277 135 302 183.5 Q327 232 348 288 L375 415 L445 422 Q440 400 433.5 370 Q427 340 422.5 321 Q418 302 416 291 L391 150 Q378 76 378 64 Q378 39 396 39 Q429 39 472 92 L478 88 Z" /><glyph glyph-name="v" unicode="v" d="M414 324 Q414 287 398 229 Q386 187 366 148 Q346 109 317.5 72 Q289 35 249 13 Q209 -9 163 -9 Q122 -9 98 15.5 Q74 40 81 81 L103 269 Q108 324 108 343 Q108 364 102.5 372 Q97 380 83 380 Q71 380 51.5 366 Q32 352 14 327 L8 331 Q77 428 140 428 Q199 428 188 349 L156 92 Q147 31 196 31 Q246 31 275 54 Q304 77 326 115 Q369 187 369 266 Q369 315 342.5 349.5 Q316 384 278 392 Q306 428 346 428 Q380 428 397 397 Q414 366 414 324 Z" /><glyph glyph-name="w" unicode="w" d="M634 324 Q634 286 617 229 Q605 188 585 148 Q565 108 536 71.5 Q507 35 466 13 Q425 -9 380 -9 Q295 -9 295 63 Q295 77 298 92 L322 212 Q229 -9 131 -9 Q95 -9 78 15 Q61 39 69 81 L109 269 Q121 323 121 347 Q121 380 95 380 Q82 380 61.5 366 Q41 352 23 327 L17 331 Q91 428 152 428 Q200 428 200 379 Q200 366 197 349 L145 92 Q138 52 176 52 Q254 52 333 263 L364 413 L433 418 Q421 362 407 291 L371 98 Q365 68 375.5 49.5 Q386 31 412 31 Q496 31 546 115 Q589 187 589 266 Q589 315 562.5 349.5 Q536 384 498 392 Q525 428 566 428 Q599 428 616.5 396.5 Q634 365 634 324 Z" /><glyph glyph-name="x" unicode="x" d="M415 385 Q415 363 399 344 Q384 357 358 357 Q305 357 261 291 L238 256 L288 71 Q297 36 329 36 Q368 36 387 83 L394 80 Q374 31 344.5 11 Q315 -9 287 -9 Q236 -9 223 37 L186 176 Q179 164 162 134.5 Q145 105 134.5 87 Q124 69 109 47.5 Q94 26 82 15 Q55 -9 33 -9 Q16 -9 6 3.5 Q-4 16 -4 34 Q-4 56 12 75 Q23 66 42 66 Q97 66 149 138 L183 191 L142 348 Q133 383 99 383 Q81 383 65.5 370 Q50 357 42 336 L35 339 Q54 387 84 407.5 Q114 428 142 428 Q192 428 205 382 L234 272 Q290 367 328 404 Q355 428 377 428 Q394 428 404.5 415.5 Q415 403 415 385 Z" /><glyph glyph-name="y" unicode="y" d="M444 422 Q438 390 428 345 Q418 300 416 291 L374 65 Q366 23 360.5 -3 Q355 -29 344.5 -66.5 Q334 -104 323 -127 Q312 -150 294.5 -177 Q277 -204 256.5 -219 Q236 -234 207 -244 Q178 -254 144 -254 Q81 -254 49 -229.5 Q17 -205 17 -170 Q17 -138 42 -109.5 Q67 -81 108 -78 Q88 -121 88 -156 Q88 -237 166 -237 Q186 -237 203 -226.5 Q220 -216 232 -195 Q244 -174 253.5 -152 Q263 -130 270.5 -97 Q278 -64 283 -40.5 Q288 -17 294 18.5 Q300 54 303 70 L334 221 Q290 121 235.5 56 Q181 -9 127 -9 Q91 -9 74 15 Q57 39 65 81 L105 269 Q117 323 117 347 Q117 380 91 380 Q78 380 57.5 366 Q37 352 19 327 L13 331 Q87 428 148 428 Q196 428 196 379 Q196 366 193 349 L141 92 Q134 52 172 52 Q218 52 264 121.5 Q310 191 346 282 L373 413 L444 422 Z" /><glyph glyph-name="z" unicode="z" d="M387 414 L85 71 Q150 52 227 52 Q348 52 350 128 Q386 109 386 69 Q386 -16 227 -16 Q126 -16 17 14 L17 18 L307 351 L225 351 Q123 351 95.5 338.5 Q68 326 56 267 L48 267 Q50 298 51.5 315 Q53 332 58.5 355.5 Q64 379 74 391 Q84 403 101.5 412 Q119 421 145 421 Q180 421 238 420 Q296 419 298 419 L387 419 L387 414 Z" /><glyph glyph-name="Adieresis" unicode="ä" d="M601 0 Q520 2 491 2 L376 0 L376 9 Q394 9 403 9.5 Q412 10 424 11.5 Q436 13 441 17.5 Q446 22 446 29 Q446 33 436 61 Q426 89 409.5 133 Q393 177 384 202 Q382 202 341.5 203 Q301 204 282 204 Q265 204 239.5 203.5 Q214 203 194.5 202.5 Q175 202 173 202 Q120 71 118 62 Q112 36 134 23 Q156 10 194 9 L194 0 Q106 2 77 2 L-4 0 L-4 9 Q38 13 64.5 40 Q91 67 115 123 L299 555 L338 555 L523 82 Q540 37 554.5 24.5 Q569 12 601 9 L601 0 ZM376 222 L283 468 Q208 293 181 221 Q182 221 199 220.5 Q216 220 240 220 Q264 220 282 220 Q368 220 376 222 ZM279 663 Q279 641 266 629.5 Q253 618 234 618 Q214 618 201.5 629.5 Q189 641 189 663 Q189 686 201.5 697.5 Q214 709 234 709 Q253 709 266 697.5 Q279 686 279 663 ZM442 663 Q442 641 429 629.5 Q416 618 396 618 Q377 618 364 629.5 Q351 641 351 663 Q351 686 364 697.5 Q377 709 396 709 Q416 709 429 697.5 Q442 686 442 663 Z" /><glyph glyph-name="Odieresis" unicode="ö" d="M333 663 Q333 641 320 629.5 Q307 618 288 618 Q268 618 255.5 629.5 Q243 641 243 663 Q243 686 255.5 697.5 Q268 709 288 709 Q307 709 320 697.5 Q333 686 333 663 ZM496 663 Q496 641 483 629.5 Q470 618 450 618 Q431 618 418 629.5 Q405 641 405 663 Q405 686 418 697.5 Q431 709 450 709 Q470 709 483 697.5 Q496 686 496 663 ZM571 271 Q571 397 513 467.5 Q455 538 364 538 Q277 538 220 472.5 Q163 407 163 283 Q163 158 221 85.5 Q279 13 372 13 Q460 13 515.5 80 Q571 147 571 271 ZM668 287 Q668 158 581.5 75 Q495 -8 364 -8 Q310 -8 259 8 Q208 24 164.5 55 Q121 86 94.5 140 Q68 194 68 263 Q68 393 154 475.5 Q240 558 373 558 Q431 558 483 541 Q535 524 576.5 491.5 Q618 459 643 406 Q668 353 668 287 Z" /><glyph glyph-name="Udieresis" unicode="ü" d="M324 663 Q324 641 311 629.5 Q298 618 279 618 Q259 618 246.5 629.5 Q234 641 234 663 Q234 686 246.5 697.5 Q259 709 279 709 Q298 709 311 697.5 Q324 686 324 663 ZM487 663 Q487 641 474 629.5 Q461 618 441 618 Q422 618 409 629.5 Q396 641 396 663 Q396 686 409 697.5 Q422 709 441 709 Q461 709 474 697.5 Q487 686 487 663 ZM667 541 Q612 538 592.5 510 Q573 482 573 408 L573 193 Q573 136 554.5 95 Q536 54 504.5 32.5 Q473 11 438 1.5 Q403 -8 362 -8 Q133 -8 133 163 L133 461 Q133 507 117 522.5 Q101 538 46 541 L46 551 Q143 549 175 549 L304 551 L304 541 Q250 538 233.5 522.5 Q217 507 217 461 L217 194 Q217 94 258.5 53.5 Q300 13 381 13 Q549 13 549 202 L549 408 Q549 482 523.5 510 Q498 538 430 541 L430 551 Q516 549 548 549 L667 551 L667 541 Z" /><glyph glyph-name="germandbls" unicode="ß" d="M530 556 Q530 520 510 493 Q490 466 461 450.5 Q432 435 403.5 420.5 Q375 406 355 385.5 Q335 365 335 337 Q335 311 363.5 284 Q392 257 425.5 236.5 Q459 216 487.5 182.5 Q516 149 516 112 Q516 55 469 23 Q422 -9 352 -9 Q289 -9 251.5 10 Q214 29 214 65 Q214 86 232 101.5 Q250 117 280 117 Q279 110 279 80 Q282 8 349 8 Q388 8 413 30 Q438 52 438 96 Q438 117 420 138 Q402 159 376.5 177 Q351 195 325.5 214.5 Q300 234 282 259 Q264 284 264 311 Q264 342 283.5 364.5 Q303 387 331.5 402.5 Q360 418 388 436 Q416 454 435.5 485 Q455 516 455 559 Q455 601 426 630.5 Q397 660 352 660 Q290 660 263.5 614.5 Q237 569 216 459 L108 -104 Q96 -169 56.5 -212 Q17 -255 -48 -255 Q-93 -255 -130 -236.5 Q-167 -218 -167 -184 Q-167 -162 -150 -145.5 Q-133 -129 -103 -129 Q-106 -153 -103 -176 Q-100 -199 -86 -218.5 Q-72 -238 -47 -238 Q13 -238 34 -120 L124 371 L45 371 L47 380 L133 412 L138 433 Q163 565 221 624 Q279 683 358 683 Q443 683 486.5 646 Q530 609 530 556 Z" /><glyph glyph-name="adieresis" unicode="ä" d="M442 88 Q370 -9 308 -9 Q260 -9 260 40 Q260 54 263 70 L274 130 Q246 75 199 33 Q152 -9 115 -9 Q70 -9 48.5 29 Q27 67 27 114 Q27 189 57 259 Q87 329 152 378.5 Q217 428 303 428 Q374 428 401 423 L350 150 Q339 95 339 72 Q339 39 366 39 Q378 39 398.5 53 Q419 67 437 92 L442 88 ZM322 388 Q303 407 273 407 Q200 407 154.5 331 Q109 255 109 144 Q109 46 169 46 Q202 46 231 78 Q260 110 280 160 L311 327 L322 388 ZM266 600 Q266 572 250.5 559 Q235 546 213 546 Q197 546 187 556 Q177 566 177 583 Q177 605 191.5 620.5 Q206 636 229 636 Q245 636 255.5 626.5 Q266 617 266 600 ZM423 600 Q423 572 407.5 559 Q392 546 370 546 Q354 546 344 556 Q334 566 334 583 Q334 605 348.5 620.5 Q363 636 386 636 Q402 636 412.5 626.5 Q423 617 423 600 Z" /><glyph glyph-name="odieresis" unicode="ö" d="M253 599 Q253 571 237.5 558 Q222 545 200 545 Q184 545 174 555 Q164 565 164 582 Q164 604 178.5 619.5 Q193 635 216 635 Q232 635 242.5 625.5 Q253 616 253 599 ZM410 599 Q410 571 394.5 558 Q379 545 357 545 Q341 545 331 555 Q321 565 321 582 Q321 604 335.5 619.5 Q350 635 373 635 Q389 635 399.5 625.5 Q410 616 410 599 ZM405 269 Q405 164 338 77.5 Q271 -9 170 -9 Q103 -9 67.5 36.5 Q32 82 32 149 Q32 251 99 339.5 Q166 428 264 428 Q334 428 369.5 381 Q405 334 405 269 ZM322 275 Q322 330 306.5 369.5 Q291 409 254 409 Q208 409 174.5 364.5 Q141 320 127.5 261 Q114 202 114 140 Q114 8 176 8 Q240 8 281 89.5 Q322 171 322 275 Z" /><glyph glyph-name="udieresis" unicode="ü" d="M478 88 Q408 -9 348 -9 Q325 -9 313 5.5 Q301 20 301.5 38 Q302 56 303 70 L335 225 Q291 123 236 57 Q181 -9 127 -9 Q91 -9 74 15 Q57 39 65 81 L105 269 Q117 323 117 347 Q117 380 91 380 Q78 380 57.5 366 Q37 352 19 327 L13 331 Q87 428 148 428 Q196 428 196 379 Q196 366 193 349 L141 92 Q134 52 172 52 Q204 52 240.5 93.5 Q277 135 302 183.5 Q327 232 348 288 L375 415 L445 422 Q440 400 433.5 370 Q427 340 422.5 321 Q418 302 416 291 L391 150 Q378 76 378 64 Q378 39 396 39 Q429 39 472 92 L478 88 ZM279 600 Q279 572 263.5 559 Q248 546 226 546 Q210 546 200 556 Q190 566 190 583 Q190 605 204.5 620.5 Q219 636 242 636 Q258 636 268.5 626.5 Q279 617 279 600 ZM436 600 Q436 572 420.5 559 Q405 546 383 546 Q367 546 357 556 Q347 566 347 583 Q347 605 361.5 620.5 Q376 636 399 636 Q415 636 425.5 626.5 Q436 617 436 600 Z" /></font>
</defs>
</svg>
